# xmcd CD database file
#
# Track frame offsets:
#	150
#	13910
#	29942
#	43930
#	55868
#	66911
#	78971
#	94177
#	110482
#	118985
#	131283
#	139677
#	151798
#	165217
#	175565
#	191918
#	211627
#	223954
#
# Disc length: 3148 seconds
#
# Revision: 0
# Processed by: cddbd v1.4PL0 Copyright (c) Steve Scherf et al.
# Submitted via: CDex 1.50Beta6
#
DISCID=000c4a12
DTITLE=Rùzní interpreti - Zlatá horeèka
DYEAR=1900
DGENRE=Country
TTITLE0=Kalifornie
TTITLE1=Zlaty udoli
TTITLE2=Zlate strevicky
TTITLE3=Seerni vitr
TTITLE4=Klondike
TTITLE5=Zlatokop Tom
TTITLE6=Muldou do Klondiku
TTITLE7=Bobuv hrob
TTITLE8=Jaro na Aljasku
TTITLE9=Zlaty ranc
TTITLE10=Zlato
TTITLE11=Zlatokop
TTITLE12=Pri polarni zari
TTITLE13=Nemam nic proti krumpaci a lopate
TTITLE14=Aljaska
TTITLE15=Zlate stranky
TTITLE16=Dal, dal, dal
TTITLE17=Zlata horecka
EXTD=
EXTT0=
EXTT1=
EXTT2=
EXTT3=
EXTT4=
EXTT5=
EXTT6=
EXTT7=
EXTT8=
EXTT9=
EXTT10=
EXTT11=
EXTT12=
EXTT13=
EXTT14=
EXTT15=
EXTT16=
EXTT17=
PLAYORDER=
